/* XPM */
static char *fce20cb365bd42cbcb37d38f2f22bfc2[] = {
/* columns rows colors chars-per-pixel */
"16 16 10 1 ",
"  c #E73C24",
". c #E43E25",
"X c #E43F25",
"o c #E63E25",
"O c #DB4627",
"+ c #43B749",
"@ c #41B949",
"# c #40B94A",
"$ c #84863A",
"% c None",
/* pixels */
"%%%%%%%%%%%%%%%%",
"%%%%%%%%%%%%%%%%",
"%%%%%%%%%%%%%%%%",
"%%%%%%%%%%%%%%%%",
"%%%@%o%%%O%%%%%%",
"%%+%%%X% $@+@+%%",
"%+%%%%%X%%+%%%+%",
"%+%%%%o%%%%%%%+%",
"%+%%%Xo%%%+%%%+%",
"%@%%XX%o%%+%%%%%",
"%%%%%%%%%%%%%%%%",
"%%%%%%%%%%%%%%%%",
"%%%%%%%%%%%%%%%%",
"%%%%%%%%%%%%%%%%",
"%%%%%%%%%%%%%%%%",
"%%%%%%%%%%%%%%%%"
};
