/* XPM */
static char *_186559684474c7fac8b1550e11f936a[] = {
/* columns rows colors chars-per-pixel */
"32 32 11 1 ",
"  c #E53E25",
". c #E43F25",
"X c #E53F25",
"o c #E63E25",
"O c #D54A28",
"+ c #E34025",
"@ c #4BB147",
"# c #43B749",
"$ c #42B849",
"% c #40B94A",
"& c None",
/* pixels */
"&&&&&&&&&&&&&&&&&&&&&&&&&&&&&&&&",
"&&&&&&&&&&&&&&&&&&&&&&&&&&&&&&&&",
"&&&&&&&&&&&&&&&&&&&&&&&&&&&&&&&&",
"&&&&&&&&&&&&&&&&&&&&&&&&&&&&&&&&",
"&&&&&&&&&&&&&&&&&&&&&&&&&&&&&&&&",
"&&&&&&&&&&&&&&&&&&&&&&&&&&&&&&&&",
"&&&&&&&&&&&&&&&&&&&&&&&&&&&&&&&&",
"&&&&&&&&&&&&&&&&&&&+o&&&&&&&&&&&",
"&&&&&&&#$&o&&&&&&&+o&&&&&&&&&&&&",
"&&&&&##$&++oo&&&&+oO&&&&&&&&&&&&",
"&&&&###&&&....&&o++@$&##$##&&&&&",
"&&&##&&&&&&&+o&++o&$#########&&&",
"&&##&&&&&&&&o&+o.&&###&&&&&##&&&",
"&&##&&&&&&&&&&o+&&&##&&&&&&&##&&",
"&&##&&&&&&&&&+o&&&&##&&&&&&&&#&&",
"&&##&&&&&&&&+o&&&&&##&&&&&&&&#&&",
"&&##&&&&&&&+o&o&&&&##&&&&&&&&#&&",
"&&##&&&&&&oo&.+&&&&&#&&&&&&&##&&",
"&&##&&&&&+o+&++&&&&&##&&&&&&##&&",
"&&#$&&&&+o+&&oo&&&&&&###&&&&#&&&",
"&&##&&&oo+&&&o.&&&&&&&###&&&&&&&",
"&&&&&&&&&&&&&&&&&&&&&&&&&&&&&&&&",
"&&&&&&&&&&&&&&&&&&&&&&&&&&&&&&&&",
"&&&&&&&&&&&&&&&&&&&&&&&&&&&&&&&&",
"&&&&&&&&&&&&&&&&&&&&&&&&&&&&&&&&",
"&&&&&&&&&&&&&&&&&&&&&&&&&&&&&&&&",
"&&&&&&&&&&&&&&&&&&&&&&&&&&&&&&&&",
"&&&&&&&&&&&&&&&&&&&&&&&&&&&&&&&&",
"&&&&&&&&&&&&&&&&&&&&&&&&&&&&&&&&",
"&&&&&&&&&&&&&&&&&&&&&&&&&&&&&&&&",
"&&&&&&&&&&&&&&&&&&&&&&&&&&&&&&&&",
"&&&&&&&&&&&&&&&&&&&&&&&&&&&&&&&&"
};
