/* XPM */
static char *_78c127bae9b48e3aad3c5fc905453d3[] = {
/* columns rows colors chars-per-pixel */
"64 64 5 1 ",
"  c #E43E25",
". c #E43F25",
"X c #42B749",
"o c #43B749",
"O c None",
/* pixels */
"OOOOOOOOOOOOOOOOOOOOOOOOOOOOOOOOOOOOOOOOOOOOOOOOOOOOOOOOOOOOOOOO",
"OOOOOOOOOOOOOOOOOOOOOOOOOOOOOOOOOOOOOOOOOOOOOOOOOOOOOOOOOOOOOOOO",
"OOOOOOOOOOOOOOOOOOOOOOOOOOOOOOOOOOOOOOOOOOOOOOOOOOOOOOOOOOOOOOOO",
"OOOOOOOOOOOOOOOOOOOOOOOOOOOOOOOOOOOOOOOOOOOOOOOOOOOOOOOOOOOOOOOO",
"OOOOOOOOOOOOOOOOOOOOOOOOOOOOOOOOOOOOOOOOOOOOOOOOOOOOOOOOOOOOOOOO",
"OOOOOOOOOOOOOOOOOOOOOOOOOOOOOOOOOOOOOOOOOOOOOOOOOOOOOOOOOOOOOOOO",
"OOOOOOOOOOOOOOOOOOOOOOOOOOOOOOOOOOOOOOOOOOOOOOOOOOOOOOOOOOOOOOOO",
"OOOOOOOOOOOOOOOOOOOOOOOOOOOOOOOOOOOOOOOOOOOOOOOOOOOOOOOOOOOOOOOO",
"OOOOOOOOOOOOOOOOOOOOOOOOOOOOOOOOOOOOOOOOOOOOOOOOOOOOOOOOOOOOOOOO",
"OOOOOOOOOOOOOOOOOOOOOOOOOOOOOOOOOOOOOOOOOOOOOOOOOOOOOOOOOOOOOOOO",
"OOOOOOOOOOOOOOOOOOOOOOOOOOOOOOOOOOOOOOOOOOOOOOOOOOOOOOOOOOOOOOOO",
"OOOOOOOOOOOOOOOOOOOOOOOOOOOOOOOOOOOOOOOOOOOOOOOOOOOOOOOOOOOOOOOO",
"OOOOOOOOOOOOOOOOOOOOOOOOOOOOOOOOOOOOOOOOOOOOOOOOOOOOOOOOOOOOOOOO",
"OOOOOOOOOOOOOOOOOOOOOOOOOOOOOOOOOOOOOOOO...OOOOOOOOOOOOOOOOOOOOO",
"OOOOOOOOOOOOOOOOOOOOOOOOOOOOOOOOOOOOOO.....OOOOOOOOOOOOOOOOOOOOO",
"OOOOOOOOOOOOOOOOOOOOOOOOOOOOOOOOOOOOOO....OOOOOOOOOOOOOOOOOOOOOO",
"OOOOOOOOOOOOOOOOooOOOOOOOOOOOOOOOOOOO....OOOOOOOOOOOOOOOOOOOOOOO",
"OOOOOOOOOOOOOoooooOO...OOOOOOOOOOOOO....OOOOOOOOOOOOOOOOOOOOOOOO",
"OOOOOOOOOOOooooooOO......OOOOOOOOOO....OOOOOOOOOOOOOOOOOOOOOOOOO",
"OOOOOOOOOoooooooOO........OOOOOOOO....OOooOOOOOOOOOOOOOOOOOOOOOO",
"OOOOOOOOoooooooOOOO........OOOOOO.....OOooOOOOoooooooOOOOOOOOOOO",
"OOOOOOOoooooOOOOOOOOOO......OOOO.....OOoooOOoooooooooooOOOOOOOOO",
"OOOOOOoooooOOOOOOOOOOOO.....OOO.....OOoooooooooooooooooooOOOOOOO",
"OOOOOoooooOOOOOOOOOOOOOO....OO.....OOOoooooooooOOOOOooooooOOOOOO",
"OOOOOooooOOOOOOOOOOOOOOOO..OO.....OOOOoooooooOOOOOOOOOoooooOOOOO",
"OOOOOoooOOOOOOOOOOOOOOOOO.OOO....OOOOOooooooOOOOOOOOOOOooooOOOOO",
"OOOOooooOOOOOOOOOOOOOOOOOOOO....OOOOOOoooooOOOOOOOOOOOOOooooOOOO",
"OOOOooooOOOOOOOOOOOOOOOOOOO....OOOOOOOooooOOOOOOOOOOOOOOOoooOOOO",
"OOOOooooOOOOOOOOOOOOOOOOOO.....OOOOOOOooooOOOOOOOOOOOOOOOooooOOO",
"OOOOooooOOOOOOOOOOOOOOOOO.....OOOOOOOOooooOOOOOOOOOOOOOOOooooOOO",
"OOOOoooOOOOOOOOOOOOOOOOO.....OOOOOOOOOooooOOOOOOOOOOOOOOOOoooOOO",
"OOOOoooOOOOOOOOOOOOOOOO.....OOOOOOOOOOooooOOOOOOOOOOOOOOOOoooOOO",
"OOOOoooOOOOOOOOOOOOOOO.....OO.OOOOOOOOooooOOOOOOOOOOOOOOOooooOOO",
"OOOOoooOOOOOOOOOOOOOO.....OO..OOOOOOOOOoooOOOOOOOOOOOOOOOooooOOO",
"OOOOoooOOOOOOOOOOOOOO....OO...OOOOOOOOOoooOOOOOOOOOOOOOOOoooOOOO",
"OOOOoooOOOOOOOOOOOOO....OOO...OOOOOOOOOooooOOOOOOOOOOOOOooooOOOO",
"OOOOoooOOOOOOOOOOOO....OOOO...OOOOOOOOOOooooOOOOOOOOOOOOooooOOOO",
"OOOOoooOOOOOOOOOOO.....OOOO...OOOOOOOOOOoooooOOOOOOOOOOooooOOOOO",
"OOOOoooOOOOOOOOOO.....OOOOO...OOOOOOOOOOOoooooOOOOOOOOOoooOOOOOO",
"OOOOooooOOOOOOOO.....OOOOOO...OOOOOOOOOOOOooooooooOOOOOooOOOOOOO",
"OOOOooooOOOOOOO.....OOOOOOO...OOOOOOOOOOOOOoooooooOOOOOOOOOOOOOO",
"OOOOoooOOOOOOO.....OOOOOOOO...OOOOOOOOOOOOOOOoooooOOOOOOOOOOOOOO",
"OOOOOOOOOOOOOOOOOOOOOOOOOOOOOOOOOOOOOOOOOOOOOOOOOOOOOOOOOOOOOOOO",
"OOOOOOOOOOOOOOOOOOOOOOOOOOOOOOOOOOOOOOOOOOOOOOOOOOOOOOOOOOOOOOOO",
"OOOOOOOOOOOOOOOOOOOOOOOOOOOOOOOOOOOOOOOOOOOOOOOOOOOOOOOOOOOOOOOO",
"OOOOOOOOOOOOOOOOOOOOOOOOOOOOOOOOOOOOOOOOOOOOOOOOOOOOOOOOOOOOOOOO",
"OOOOOOOOOOOOOOOOOOOOOOOOOOOOOOOOOOOOOOOOOOOOOOOOOOOOOOOOOOOOOOOO",
"OOOOOOOOOOOOOOOOOOOOOOOOOOOOOOOOOOOOOOOOOOOOOOOOOOOOOOOOOOOOOOOO",
"OOOOOOOOOOOOOOOOOOOOOOOOOOOOOOOOOOOOOOOOOOOOOOOOOOOOOOOOOOOOOOOO",
"OOOOOOOOOOOOOOOOOOOOOOOOOOOOOOOOOOOOOOOOOOOOOOOOOOOOOOOOOOOOOOOO",
"OOOOOOOOOOOOOOOOOOOOOOOOOOOOOOOOOOOOOOOOOOOOOOOOOOOOOOOOOOOOOOOO",
"OOOOOOOOOOOOOOOOOOOOOOOOOOOOOOOOOOOOOOOOOOOOOOOOOOOOOOOOOOOOOOOO",
"OOOOOOOOOOOOOOOOOOOOOOOOOOOOOOOOOOOOOOOOOOOOOOOOOOOOOOOOOOOOOOOO",
"OOOOOOOOOOOOOOOOOOOOOOOOOOOOOOOOOOOOOOOOOOOOOOOOOOOOOOOOOOOOOOOO",
"OOOOOOOOOOOOOOOOOOOOOOOOOOOOOOOOOOOOOOOOOOOOOOOOOOOOOOOOOOOOOOOO",
"OOOOOOOOOOOOOOOOOOOOOOOOOOOOOOOOOOOOOOOOOOOOOOOOOOOOOOOOOOOOOOOO",
"OOOOOOOOOOOOOOOOOOOOOOOOOOOOOOOOOOOOOOOOOOOOOOOOOOOOOOOOOOOOOOOO",
"OOOOOOOOOOOOOOOOOOOOOOOOOOOOOOOOOOOOOOOOOOOOOOOOOOOOOOOOOOOOOOOO",
"OOOOOOOOOOOOOOOOOOOOOOOOOOOOOOOOOOOOOOOOOOOOOOOOOOOOOOOOOOOOOOOO",
"OOOOOOOOOOOOOOOOOOOOOOOOOOOOOOOOOOOOOOOOOOOOOOOOOOOOOOOOOOOOOOOO",
"OOOOOOOOOOOOOOOOOOOOOOOOOOOOOOOOOOOOOOOOOOOOOOOOOOOOOOOOOOOOOOOO",
"OOOOOOOOOOOOOOOOOOOOOOOOOOOOOOOOOOOOOOOOOOOOOOOOOOOOOOOOOOOOOOOO",
"OOOOOOOOOOOOOOOOOOOOOOOOOOOOOOOOOOOOOOOOOOOOOOOOOOOOOOOOOOOOOOOO",
"OOOOOOOOOOOOOOOOOOOOOOOOOOOOOOOOOOOOOOOOOOOOOOOOOOOOOOOOOOOOOOOO"
};
